<?xml version="1.0" encoding="UTF-8" standalone="no"?>
<svg
   width="125"
   height="39.68919756536649"
   viewBox="0 0 81.92005 26.007953"
   preserveAspectRatio="xMinYMin meet"
   version="1.1"
   id="svg6581"
   sodipodi:docname="lf-fordark.svg"
   inkscape:version="1.3.2 (091e20ef0f, 2023-11-25, custom)"
   xmlns:inkscape="http://www.inkscape.org/namespaces/inkscape"
   xmlns:sodipodi="http://sodipodi.sourceforge.net/DTD/sodipodi-0.dtd"
   xmlns:xlink="http://www.w3.org/1999/xlink"
   xmlns="http://www.w3.org/2000/svg"
   xmlns:svg="http://www.w3.org/2000/svg">
  <sodipodi:namedview
     id="namedview47"
     pagecolor="#ffffff"
     bordercolor="#666666"
     borderopacity="1.0"
     inkscape:pageshadow="2"
     inkscape:pageopacity="0.0"
     inkscape:pagecheckerboard="true"
     showgrid="false"
     fit-margin-top="0"
     fit-margin-left="0"
     fit-margin-right="0"
     fit-margin-bottom="0"
     inkscape:zoom="8"
     inkscape:cx="66.6875"
     inkscape:cy="44.0625"
     inkscape:window-width="1920"
     inkscape:window-height="1131"
     inkscape:window-x="0"
     inkscape:window-y="0"
     inkscape:window-maximized="1"
     inkscape:current-layer="g14872"
     inkscape:showpageshadow="2"
     inkscape:deskcolor="#d1d1d1" />
  <defs
     id="defs6563">
    <linearGradient
       x1="0"
       y1="0"
       x2="1"
       y2="0"
       gradientUnits="userSpaceOnUse"
       gradientTransform="matrix(129.21133,0,0,129.21133,62.63752,232.12146)"
       spreadMethod="pad"
       id="linearGradient2262">
      <stop
         style="stop-opacity:1;stop-color:#ffffff"
         offset="0"
         id="stop2258" />
      <stop
         style="stop-opacity:0;stop-color:#003164"
         offset="1"
         id="stop2260" />
    </linearGradient>
    <clipPath
       clipPathUnits="userSpaceOnUse"
       id="clipPath36">
      <path
         d="M 0,275.441 H 276.279 V 0 H 0 Z"
         id="path34" />
    </clipPath>
    <linearGradient
       id="linearGradient28"
       spreadMethod="pad"
       gradientTransform="matrix(129.21133,0,0,104.44516,156.85276,538.50754)"
       gradientUnits="userSpaceOnUse"
       y2="0"
       x2="1"
       y1="0"
       x1="0"
       xlink:href="#linearGradient2262">
      <stop
         id="stop24-3"
         offset="0"
         style="stop-opacity:0;stop-color:#ffffff" />
      <stop
         id="stop26"
         offset="1"
         style="stop-opacity:1;stop-color:#ffffff" />
    </linearGradient>
  </defs>
  <g
     id="g6596"
     transform="matrix(0.10533707,0,0,-0.10533707,-3.5460417,28.989292)">
    <g
       id="g10"
       transform="translate(9.0974047,6.0649366)" />
    <g
       id="g32501"
       transform="matrix(1.0477035,0,0,1.0477035,-1.9235908,-1.3886164)">
      <g
         id="g30"
         transform="translate(9.0974047,6.0649366)">
        <g
           id="g32"
           clip-path="url(#clipPath36)">
          <g
             id="g38"
             transform="translate(126.5786,199.0042)">
            <path
               d="m 0,0 c 4.038,0 7.322,-3.285 7.322,-7.322 0,-4.038 -3.284,-7.323 -7.322,-7.323 -4.038,0 -7.323,3.285 -7.323,7.323 C -7.323,-3.285 -4.038,0 0,0 m -6.455,-22.479 v -58.255 h 12.91 v 58.255 c 3.901,1.669 7.033,4.8 8.701,8.702 H 119.521 V -0.868 H 15.156 C 12.64,5.018 6.794,9.153 0,9.153 c -9.084,0 -16.476,-7.391 -16.476,-16.475 0,-6.795 4.136,-12.64 10.021,-15.157"
               style="fill:#fdb515;fill-opacity:1;fill-rule:nonzero;stroke:none"
               id="path40" />
          </g>
          <g
             id="g42"
             transform="translate(126.5786,68.6584)"
             style="fill:#ffffff">
            <path
               d="m 0,0 c 4.038,0 7.322,-3.284 7.322,-7.322 0,-4.037 -3.284,-7.323 -7.322,-7.323 -4.038,0 -7.323,3.286 -7.323,7.323 C -7.323,-3.284 -4.038,0 0,0 m 119.332,98.498 c 4.037,0 7.322,-3.285 7.322,-7.323 0,-4.037 -3.285,-7.322 -7.322,-7.322 -4.038,0 -7.323,3.285 -7.323,7.322 0,4.038 3.285,7.323 7.323,7.323 M 104.464,84.122 c 2.649,-5.56 8.308,-9.422 14.868,-9.422 9.084,0 16.475,7.391 16.475,16.475 0,9.085 -7.391,16.476 -16.475,16.476 -7.017,0 -13.006,-4.417 -15.377,-10.609 H 29.226 V 49.611 h 77.385 V 30.082 H 29.226 V -32.705 H -88.8 v 149.274 h 22.772 V -13.178 h 50.647 c 2.368,-6.198 8.36,-10.62 15.381,-10.62 9.084,0 16.476,7.392 16.476,16.476 0,9.085 -7.392,16.476 -16.476,16.476 -6.559,0 -12.218,-3.862 -14.867,-9.423 h -38.252 v 129.747 h -48.59 V -45.614 H 42.135 v 62.787 h 77.386 V 62.521 H 42.135 v 21.612 z"
               style="fill:#ffffff;fill-opacity:1;fill-rule:nonzero;stroke:none"
               id="path44" />
          </g>
        </g>
      </g>
    </g>
  </g>
  <g
     id="g14864"
     transform="matrix(0.15349191,0,0,0.15349191,-7.1497967,-3.4755001)">
    <g
       id="g14880"
       style="fill:#ffffff;fill-opacity:1"
       transform="matrix(5.1656745,0,0,5.1656745,-1432.0569,-1548.2863)">
      <path
         id="path50"
         style="fill:#ffffff;fill-opacity:1;fill-rule:nonzero;stroke:none;stroke-width:0.136533"
         d="m 323.68359,312.54376 h 1.9045 v 9.10459 h 5.69809 v 1.73411 h -7.60259 z" />
      <path
         id="path52"
         style="fill:#ffffff;fill-opacity:1;fill-rule:nonzero;stroke:none;stroke-width:0.136533"
         d="m 333.37609,312.54377 h 1.9045 v 10.8387 h -1.9045 z" />
      <path
         id="path56"
         style="fill:#ffffff;fill-opacity:1;fill-rule:nonzero;stroke:none;stroke-width:0.136533"
         d="m 338.17546,312.54376 h 1.7651 l 5.80649,7.49418 v -7.49418 h 1.87365 v 10.8387 h -1.59485 l -5.97674,-7.71099 v 7.71099 h -1.87365 z" />
      <path
         id="path60"
         style="fill:#ffffff;fill-opacity:1;fill-rule:nonzero;stroke:none;stroke-width:0.136533"
         d="m 349.92719,317.99402 v -0.031 c 0,-3.03473 2.32271,-5.60497 5.58967,-5.60497 1.88894,0 3.05016,0.52634 4.16523,1.47087 l -1.20764,1.44002 c -0.83627,-0.71229 -1.65697,-1.16121 -3.03486,-1.16121 -1.99735,0 -3.51478,1.74967 -3.51478,3.82443 v 0.0309 c 0,2.22972 1.47087,3.87099 3.68503,3.87099 1.02182,0 1.95093,-0.32495 2.6168,-0.82057 v -2.02847 h -2.77163 v -1.6567 h 4.61401 v 4.5523 c -1.06823,0.91368 -2.60109,1.68782 -4.52103,1.68782 -3.39094,0 -5.6208,-2.41541 -5.6208,-5.57438" />
      <path
         id="path64"
         style="fill:#ffffff;fill-opacity:1;fill-rule:nonzero;stroke:none;stroke-width:0.136533"
         d="m 362.37573,318.78369 v -6.23998 h 1.90464 v 6.1627 c 0,2.01291 1.03724,3.08142 2.7405,3.08142 1.68782,0 2.72493,-1.00666 2.72493,-3.00414 v -6.23998 h 1.90478 v 6.14714 c 0,3.23611 -1.82709,4.86209 -4.66071,4.86209 -2.81804,0 -4.61414,-1.62598 -4.61414,-4.76925" />
      <path
         id="path68"
         style="fill:#ffffff;fill-opacity:1;fill-rule:nonzero;stroke:none;stroke-width:0.136533"
         d="m 380.44533,319.07789 -1.87378,-4.33534 -1.85781,4.33534 z m -2.72521,-6.61163 h 1.76511 l 4.76897,10.91625 h -2.01305 l -1.09923,-2.61679 h -5.12505 l -1.11507,2.61679 h -1.95078 z" />
    </g>
    <g
       id="g14872"
       style="fill:#f7941e;fill-opacity:1"
       transform="matrix(5.3017958,0,0,5.3017958,-1476.1171,-1591.9959)">
      <path
         id="path72"
         style="fill:#fdb515;fill-opacity:1;fill-rule:nonzero;stroke:none;stroke-width:0.136533"
         d="m 323.68359,326.04302 h 7.65788 v 1.64646 h -5.85004 v 2.80739 h 5.18867 v 1.64605 h -5.18867 v 4.18912 h -1.80784 z" />
      <path
         id="path76"
         style="fill:#fdb515;fill-opacity:1;fill-rule:nonzero;stroke:none;stroke-width:0.136533"
         d="m 337.77913,331.14342 c 1.29338,0 2.1164,-0.67611 2.1164,-1.71977 v -0.0292 c 0,-1.10237 -0.79353,-1.70503 -2.13128,-1.70503 h -2.63086 v 3.45402 z m -4.45372,-5.10034 h 4.58588 c 1.29338,0 2.30783,0.38216 2.96919,1.02905 0.54395,0.55842 0.85238,1.32274 0.85238,2.21949 v 0.0291 c 0,1.69042 -1.01403,2.70459 -2.43998,3.11637 l 2.77804,3.89503 h -2.14603 l -2.52792,-3.5866 h -2.26358 v 3.5866 h -1.80798 z" />
      <path
         id="path80"
         style="fill:#fdb515;fill-opacity:1;fill-rule:nonzero;stroke:none;stroke-width:0.136533"
         d="m 350.18412,332.24582 -1.77848,-4.11552 -1.76388,4.11552 z m -2.58676,-6.27616 h 1.67554 l 4.52717,10.36247 h -1.91092 l -1.04366,-2.48423 h -4.86523 l -1.05827,2.48423 h -1.8518 z" />
      <path
         id="path84"
         style="fill:#fdb515;fill-opacity:1;fill-rule:nonzero;stroke:none;stroke-width:0.136533"
         d="m 355.56347,326.04302 h 1.6754 l 5.51226,7.11421 v -7.11421 h 1.77835 v 10.28902 h -1.51388 l -5.67378,-7.31983 v 7.31983 h -1.77835 z" />
      <path
         id="path88"
         style="fill:#fdb515;fill-opacity:1;fill-rule:nonzero;stroke:none;stroke-width:0.136533"
         d="m 366.7192,331.21703 v -0.0295 c 0,-2.92509 2.18986,-5.32084 5.30609,-5.32084 1.89604,0 3.04251,0.6615 4.02719,1.60222 l -1.16121,1.33748 c -0.82316,-0.76432 -1.70476,-1.27864 -2.88086,-1.27864 -1.95475,0 -3.39517,1.61669 -3.39517,3.63029 v 0.0295 c 0,2.01359 1.42582,3.64517 3.39517,3.64517 1.26416,0 2.07272,-0.49972 2.95472,-1.32274 l 1.16094,1.17569 c -1.07301,1.11711 -2.24884,1.82272 -4.17437,1.82272 -2.99854,0 -5.2325,-2.33691 -5.2325,-5.29135" />
      <path
         id="path92"
         style="fill:#fdb515;fill-opacity:1;fill-rule:nonzero;stroke:none;stroke-width:0.136533"
         d="m 384.25427,332.24582 -1.77876,-4.11552 -1.7636,4.11552 z m -2.58703,-6.27616 h 1.67553 l 4.52718,10.36247 h -1.91092 l -1.04353,-2.48423 h -4.86509 l -1.05854,2.48423 h -1.85181 z" />
    </g>
  </g>
  <g
     id="g22"
     style="stroke-width:0.99975;stroke-miterlimit:4;stroke-dasharray:none"
     transform="matrix(0.11036227,0,0,-0.13653333,-13.142561,76.373016)">
    <path
       d="m 156.85268,517.64178 h 13.08 c 6.382,18.14697 27.057,31.48115 51.526,31.48115 v 0 c 24.469,0 45.143,-13.33418 51.525,-31.48115 v 0 h 13.08 c -6.679,23.85781 -33.099,41.73075 -64.605,41.73075 v 0 c -31.506,0 -57.927,-17.87294 -64.606,-41.73075"
       style="fill:url(#linearGradient28);fill-opacity:1;stroke:none;stroke-width:0.898434;stroke-miterlimit:4;stroke-dasharray:none"
       id="path30" />
  </g>
</svg>
